<mxfile host="app.diagrams.net" agent="Mozilla/5.0 (Windows NT 10.0; Win64; x64) AppleWebKit/537.36 (KHTML, like Gecko) Chrome/137.0.0.0 Safari/537.36" version="27.1.5">
  <diagram name="Page-1" id="8W3lfS-FaiTVeuLltwYy">
    <mxGraphModel dx="1042" dy="527" grid="1" gridSize="10" guides="1" tooltips="1" connect="1" arrows="1" fold="1" page="1" pageScale="1" pageWidth="827" pageHeight="1169" math="0" shadow="0">
      <root>
        <mxCell id="0" />
        <mxCell id="1" parent="0" />
        <mxCell id="1vTYGQa-4D_r96OpOJvQ-1" value="用戶查詢" style="whiteSpace=wrap;strokeWidth=2;fontSize=16;" vertex="1" parent="1">
          <mxGeometry x="234" y="20" width="124" height="54" as="geometry" />
        </mxCell>
        <mxCell id="1vTYGQa-4D_r96OpOJvQ-2" value="DeepSeek R1 檢索代理" style="whiteSpace=wrap;strokeWidth=2;fontSize=16;" vertex="1" parent="1">
          <mxGeometry x="186" y="124" width="221" height="54" as="geometry" />
        </mxCell>
        <mxCell id="1vTYGQa-4D_r96OpOJvQ-3" value="查詢意圖分析" style="rhombus;strokeWidth=2;whiteSpace=wrap;fontSize=16;" vertex="1" parent="1">
          <mxGeometry x="221" y="228" width="150" height="150" as="geometry" />
        </mxCell>
        <mxCell id="1vTYGQa-4D_r96OpOJvQ-4" value="制定檢索策略" style="whiteSpace=wrap;strokeWidth=2;fontSize=16;" vertex="1" parent="1">
          <mxGeometry x="218" y="428" width="156" height="54" as="geometry" />
        </mxCell>
        <mxCell id="1vTYGQa-4D_r96OpOJvQ-5" value="關鍵詞提取" style="whiteSpace=wrap;strokeWidth=2;fontSize=16;" vertex="1" parent="1">
          <mxGeometry x="416" y="532" width="140" height="54" as="geometry" />
        </mxCell>
        <mxCell id="1vTYGQa-4D_r96OpOJvQ-6" value="子查詢分解" style="whiteSpace=wrap;strokeWidth=2;fontSize=16;" vertex="1" parent="1">
          <mxGeometry x="226" y="532" width="140" height="54" as="geometry" />
        </mxCell>
        <mxCell id="1vTYGQa-4D_r96OpOJvQ-7" value="資料類型判斷" style="whiteSpace=wrap;strokeWidth=2;fontSize=16;" vertex="1" parent="1">
          <mxGeometry x="20" y="532" width="156" height="54" as="geometry" />
        </mxCell>
        <mxCell id="1vTYGQa-4D_r96OpOJvQ-8" value="私人資料庫" style="whiteSpace=wrap;strokeWidth=2;fontSize=16;" vertex="1" parent="1">
          <mxGeometry x="226" y="636" width="140" height="54" as="geometry" />
        </mxCell>
        <mxCell id="1vTYGQa-4D_r96OpOJvQ-9" value="向量檢索" style="whiteSpace=wrap;strokeWidth=2;fontSize=16;" vertex="1" parent="1">
          <mxGeometry x="234" y="740" width="124" height="54" as="geometry" />
        </mxCell>
        <mxCell id="1vTYGQa-4D_r96OpOJvQ-10" value="語義搜尋" style="whiteSpace=wrap;strokeWidth=2;fontSize=16;" vertex="1" parent="1">
          <mxGeometry x="305" y="844" width="124" height="54" as="geometry" />
        </mxCell>
        <mxCell id="1vTYGQa-4D_r96OpOJvQ-11" value="相關片段提取" style="whiteSpace=wrap;strokeWidth=2;fontSize=16;" vertex="1" parent="1">
          <mxGeometry x="289" y="948" width="156" height="54" as="geometry" />
        </mxCell>
        <mxCell id="1vTYGQa-4D_r96OpOJvQ-12" value="DeepSeek 品質評估" style="whiteSpace=wrap;strokeWidth=2;fontSize=16;" vertex="1" parent="1">
          <mxGeometry x="268" y="1052" width="198" height="54" as="geometry" />
        </mxCell>
        <mxCell id="1vTYGQa-4D_r96OpOJvQ-13" value="是否需要更多資料?" style="rhombus;strokeWidth=2;whiteSpace=wrap;fontSize=16;" vertex="1" parent="1">
          <mxGeometry x="273" y="1156" width="188" height="188" as="geometry" />
        </mxCell>
        <mxCell id="1vTYGQa-4D_r96OpOJvQ-14" value="補充檢索" style="whiteSpace=wrap;strokeWidth=2;fontSize=16;" vertex="1" parent="1">
          <mxGeometry x="143" y="1416" width="124" height="54" as="geometry" />
        </mxCell>
        <mxCell id="1vTYGQa-4D_r96OpOJvQ-15" value="組織上下文" style="whiteSpace=wrap;strokeWidth=2;fontSize=16;" vertex="1" parent="1">
          <mxGeometry x="317" y="1416" width="140" height="54" as="geometry" />
        </mxCell>
        <mxCell id="1vTYGQa-4D_r96OpOJvQ-16" value="Perplexity API" style="whiteSpace=wrap;strokeWidth=2;fontSize=16;" vertex="1" parent="1">
          <mxGeometry x="307" y="1520" width="159" height="54" as="geometry" />
        </mxCell>
        <mxCell id="1vTYGQa-4D_r96OpOJvQ-17" value="網路 RAG 搜尋" style="whiteSpace=wrap;strokeWidth=2;fontSize=16;" vertex="1" parent="1">
          <mxGeometry x="406" y="1624" width="163" height="54" as="geometry" />
        </mxCell>
        <mxCell id="1vTYGQa-4D_r96OpOJvQ-18" value="私有資料處理" style="whiteSpace=wrap;strokeWidth=2;fontSize=16;" vertex="1" parent="1">
          <mxGeometry x="200" y="1624" width="156" height="54" as="geometry" />
        </mxCell>
        <mxCell id="1vTYGQa-4D_r96OpOJvQ-19" value="整合生成" style="whiteSpace=wrap;strokeWidth=2;fontSize=16;" vertex="1" parent="1">
          <mxGeometry x="325" y="1728" width="124" height="54" as="geometry" />
        </mxCell>
        <mxCell id="1vTYGQa-4D_r96OpOJvQ-20" value="最終輸出" style="whiteSpace=wrap;strokeWidth=2;fontSize=16;" vertex="1" parent="1">
          <mxGeometry x="325" y="1832" width="124" height="54" as="geometry" />
        </mxCell>
        <mxCell id="1vTYGQa-4D_r96OpOJvQ-21" value="" style="curved=1;startArrow=none;endArrow=block;exitX=0.5;exitY=1;entryX=0.5;entryY=0;rounded=0;fontSize=16;" edge="1" parent="1" source="1vTYGQa-4D_r96OpOJvQ-1" target="1vTYGQa-4D_r96OpOJvQ-2">
          <mxGeometry relative="1" as="geometry">
            <Array as="points" />
          </mxGeometry>
        </mxCell>
        <mxCell id="1vTYGQa-4D_r96OpOJvQ-22" value="" style="curved=1;startArrow=none;endArrow=block;exitX=0.5;exitY=1;entryX=0.5;entryY=0;rounded=0;fontSize=16;" edge="1" parent="1" source="1vTYGQa-4D_r96OpOJvQ-2" target="1vTYGQa-4D_r96OpOJvQ-3">
          <mxGeometry relative="1" as="geometry">
            <Array as="points" />
          </mxGeometry>
        </mxCell>
        <mxCell id="1vTYGQa-4D_r96OpOJvQ-23" value="" style="curved=1;startArrow=none;endArrow=block;exitX=0.5;exitY=1;entryX=0.5;entryY=0;rounded=0;fontSize=16;" edge="1" parent="1" source="1vTYGQa-4D_r96OpOJvQ-3" target="1vTYGQa-4D_r96OpOJvQ-4">
          <mxGeometry relative="1" as="geometry">
            <Array as="points" />
          </mxGeometry>
        </mxCell>
        <mxCell id="1vTYGQa-4D_r96OpOJvQ-24" value="" style="curved=1;startArrow=none;endArrow=block;exitX=1;exitY=0.9;entryX=0.5;entryY=0;rounded=0;fontSize=16;" edge="1" parent="1" source="1vTYGQa-4D_r96OpOJvQ-4" target="1vTYGQa-4D_r96OpOJvQ-5">
          <mxGeometry relative="1" as="geometry">
            <Array as="points">
              <mxPoint x="486" y="507" />
            </Array>
          </mxGeometry>
        </mxCell>
        <mxCell id="1vTYGQa-4D_r96OpOJvQ-25" value="" style="curved=1;startArrow=none;endArrow=block;exitX=0.5;exitY=1;entryX=0.5;entryY=0;rounded=0;fontSize=16;" edge="1" parent="1" source="1vTYGQa-4D_r96OpOJvQ-4" target="1vTYGQa-4D_r96OpOJvQ-6">
          <mxGeometry relative="1" as="geometry">
            <Array as="points" />
          </mxGeometry>
        </mxCell>
        <mxCell id="1vTYGQa-4D_r96OpOJvQ-26" value="" style="curved=1;startArrow=none;endArrow=block;exitX=0;exitY=0.88;entryX=0.5;entryY=0;rounded=0;fontSize=16;" edge="1" parent="1" source="1vTYGQa-4D_r96OpOJvQ-4" target="1vTYGQa-4D_r96OpOJvQ-7">
          <mxGeometry relative="1" as="geometry">
            <Array as="points">
              <mxPoint x="98" y="507" />
            </Array>
          </mxGeometry>
        </mxCell>
        <mxCell id="1vTYGQa-4D_r96OpOJvQ-27" value="" style="curved=1;startArrow=none;endArrow=block;exitX=0.5;exitY=1;entryX=1;entryY=0.15;rounded=0;fontSize=16;" edge="1" parent="1" source="1vTYGQa-4D_r96OpOJvQ-5" target="1vTYGQa-4D_r96OpOJvQ-8">
          <mxGeometry relative="1" as="geometry">
            <Array as="points">
              <mxPoint x="486" y="611" />
            </Array>
          </mxGeometry>
        </mxCell>
        <mxCell id="1vTYGQa-4D_r96OpOJvQ-28" value="" style="curved=1;startArrow=none;endArrow=block;exitX=0.5;exitY=1;entryX=0.5;entryY=0;rounded=0;fontSize=16;" edge="1" parent="1" source="1vTYGQa-4D_r96OpOJvQ-6" target="1vTYGQa-4D_r96OpOJvQ-8">
          <mxGeometry relative="1" as="geometry">
            <Array as="points" />
          </mxGeometry>
        </mxCell>
        <mxCell id="1vTYGQa-4D_r96OpOJvQ-29" value="" style="curved=1;startArrow=none;endArrow=block;exitX=0.5;exitY=1;entryX=0;entryY=0.16;rounded=0;fontSize=16;" edge="1" parent="1" source="1vTYGQa-4D_r96OpOJvQ-7" target="1vTYGQa-4D_r96OpOJvQ-8">
          <mxGeometry relative="1" as="geometry">
            <Array as="points">
              <mxPoint x="98" y="611" />
            </Array>
          </mxGeometry>
        </mxCell>
        <mxCell id="1vTYGQa-4D_r96OpOJvQ-30" value="" style="curved=1;startArrow=none;endArrow=block;exitX=0.5;exitY=1;entryX=0.5;entryY=0;rounded=0;fontSize=16;" edge="1" parent="1" source="1vTYGQa-4D_r96OpOJvQ-8" target="1vTYGQa-4D_r96OpOJvQ-9">
          <mxGeometry relative="1" as="geometry">
            <Array as="points" />
          </mxGeometry>
        </mxCell>
        <mxCell id="1vTYGQa-4D_r96OpOJvQ-31" value="" style="curved=1;startArrow=none;endArrow=block;exitX=0.8;exitY=1;entryX=0.5;entryY=0;rounded=0;fontSize=16;" edge="1" parent="1" source="1vTYGQa-4D_r96OpOJvQ-9" target="1vTYGQa-4D_r96OpOJvQ-10">
          <mxGeometry relative="1" as="geometry">
            <Array as="points">
              <mxPoint x="367" y="819" />
            </Array>
          </mxGeometry>
        </mxCell>
        <mxCell id="1vTYGQa-4D_r96OpOJvQ-32" value="" style="curved=1;startArrow=none;endArrow=block;exitX=0.5;exitY=1;entryX=0.5;entryY=0;rounded=0;fontSize=16;" edge="1" parent="1" source="1vTYGQa-4D_r96OpOJvQ-10" target="1vTYGQa-4D_r96OpOJvQ-11">
          <mxGeometry relative="1" as="geometry">
            <Array as="points" />
          </mxGeometry>
        </mxCell>
        <mxCell id="1vTYGQa-4D_r96OpOJvQ-33" value="" style="curved=1;startArrow=none;endArrow=block;exitX=0.5;exitY=1;entryX=0.5;entryY=0;rounded=0;fontSize=16;" edge="1" parent="1" source="1vTYGQa-4D_r96OpOJvQ-11" target="1vTYGQa-4D_r96OpOJvQ-12">
          <mxGeometry relative="1" as="geometry">
            <Array as="points" />
          </mxGeometry>
        </mxCell>
        <mxCell id="1vTYGQa-4D_r96OpOJvQ-34" value="" style="curved=1;startArrow=none;endArrow=block;exitX=0.5;exitY=1;entryX=0.5;entryY=0;rounded=0;fontSize=16;" edge="1" parent="1" source="1vTYGQa-4D_r96OpOJvQ-12" target="1vTYGQa-4D_r96OpOJvQ-13">
          <mxGeometry relative="1" as="geometry">
            <Array as="points" />
          </mxGeometry>
        </mxCell>
        <mxCell id="1vTYGQa-4D_r96OpOJvQ-35" value="是" style="curved=1;startArrow=none;endArrow=block;exitX=0.14;exitY=1;entryX=0.73;entryY=0.01;rounded=0;fontSize=16;" edge="1" parent="1" source="1vTYGQa-4D_r96OpOJvQ-13" target="1vTYGQa-4D_r96OpOJvQ-14">
          <mxGeometry relative="1" as="geometry">
            <Array as="points">
              <mxPoint x="272" y="1380" />
            </Array>
          </mxGeometry>
        </mxCell>
        <mxCell id="1vTYGQa-4D_r96OpOJvQ-36" value="" style="curved=1;startArrow=none;endArrow=block;exitX=0.43;exitY=0.01;entryX=0.04;entryY=1;rounded=0;fontSize=16;" edge="1" parent="1" source="1vTYGQa-4D_r96OpOJvQ-14" target="1vTYGQa-4D_r96OpOJvQ-9">
          <mxGeometry relative="1" as="geometry">
            <Array as="points">
              <mxPoint x="186" y="1380" />
              <mxPoint x="186" y="819" />
            </Array>
          </mxGeometry>
        </mxCell>
        <mxCell id="1vTYGQa-4D_r96OpOJvQ-37" value="否" style="curved=1;startArrow=none;endArrow=block;exitX=0.58;exitY=1;entryX=0.5;entryY=0.01;rounded=0;fontSize=16;" edge="1" parent="1" source="1vTYGQa-4D_r96OpOJvQ-13" target="1vTYGQa-4D_r96OpOJvQ-15">
          <mxGeometry relative="1" as="geometry">
            <Array as="points">
              <mxPoint x="387" y="1380" />
            </Array>
          </mxGeometry>
        </mxCell>
        <mxCell id="1vTYGQa-4D_r96OpOJvQ-38" value="" style="curved=1;startArrow=none;endArrow=block;exitX=0.5;exitY=1.01;entryX=0.5;entryY=0.01;rounded=0;fontSize=16;" edge="1" parent="1" source="1vTYGQa-4D_r96OpOJvQ-15" target="1vTYGQa-4D_r96OpOJvQ-16">
          <mxGeometry relative="1" as="geometry">
            <Array as="points" />
          </mxGeometry>
        </mxCell>
        <mxCell id="1vTYGQa-4D_r96OpOJvQ-39" value="" style="curved=1;startArrow=none;endArrow=block;exitX=0.83;exitY=1.01;entryX=0.5;entryY=0.01;rounded=0;fontSize=16;" edge="1" parent="1" source="1vTYGQa-4D_r96OpOJvQ-16" target="1vTYGQa-4D_r96OpOJvQ-17">
          <mxGeometry relative="1" as="geometry">
            <Array as="points">
              <mxPoint x="488" y="1599" />
            </Array>
          </mxGeometry>
        </mxCell>
        <mxCell id="1vTYGQa-4D_r96OpOJvQ-40" value="" style="curved=1;startArrow=none;endArrow=block;exitX=0.15;exitY=1.01;entryX=0.5;entryY=0.01;rounded=0;fontSize=16;" edge="1" parent="1" source="1vTYGQa-4D_r96OpOJvQ-16" target="1vTYGQa-4D_r96OpOJvQ-18">
          <mxGeometry relative="1" as="geometry">
            <Array as="points">
              <mxPoint x="278" y="1599" />
            </Array>
          </mxGeometry>
        </mxCell>
        <mxCell id="1vTYGQa-4D_r96OpOJvQ-41" value="" style="curved=1;startArrow=none;endArrow=block;exitX=0.5;exitY=1.01;entryX=0.92;entryY=0.01;rounded=0;fontSize=16;" edge="1" parent="1" source="1vTYGQa-4D_r96OpOJvQ-17" target="1vTYGQa-4D_r96OpOJvQ-19">
          <mxGeometry relative="1" as="geometry">
            <Array as="points">
              <mxPoint x="488" y="1703" />
            </Array>
          </mxGeometry>
        </mxCell>
        <mxCell id="1vTYGQa-4D_r96OpOJvQ-42" value="" style="curved=1;startArrow=none;endArrow=block;exitX=0.5;exitY=1.01;entryX=0.04;entryY=0.01;rounded=0;fontSize=16;" edge="1" parent="1" source="1vTYGQa-4D_r96OpOJvQ-18" target="1vTYGQa-4D_r96OpOJvQ-19">
          <mxGeometry relative="1" as="geometry">
            <Array as="points">
              <mxPoint x="278" y="1703" />
            </Array>
          </mxGeometry>
        </mxCell>
        <mxCell id="1vTYGQa-4D_r96OpOJvQ-43" value="" style="curved=1;startArrow=none;endArrow=block;exitX=0.5;exitY=1.01;entryX=0.5;entryY=0.01;rounded=0;fontSize=16;" edge="1" parent="1" source="1vTYGQa-4D_r96OpOJvQ-19" target="1vTYGQa-4D_r96OpOJvQ-20">
          <mxGeometry relative="1" as="geometry">
            <Array as="points" />
          </mxGeometry>
        </mxCell>
      </root>
    </mxGraphModel>
  </diagram>
</mxfile>
